<svg xmlns="http://www.w3.org/2000/svg" xmlns:xlink="http://www.w3.org/1999/xlink" width="26" height="26" viewBox="0 0 26 26">
    <defs>
        <path id="a" d="M0 0h20v11.04H0z"/>
    </defs>
    <g fill="none" fill-rule="evenodd" transform="translate(3 7)">
        <mask id="b" fill="#fff">
            <use xlink:href="#a"/>
        </mask>
        <path fill="#3DA10D" d="M18.28 7.492a.516.516 0 0 1-.363.156h-.967a2.43 2.43 0 0 0-2.226-1.462 2.43 2.43 0 0 0-2.226 1.463l-4.87.001a2.43 2.43 0 0 0-2.227-1.464 2.43 2.43 0 0 0-2.278 1.59H2.1a.506.506 0 0 1-.368-.15.57.57 0 0 1-.17-.405l-.008-1.127a.54.54 0 0 1 .394-.53l3.064-.866a.771.771 0 0 0 .41-.285l2.411-2.415c.192-.248.48-.392.793-.394l4.91-.047h.015c.334 0 .649.171.825.45l1.741 2.26a.772.772 0 0 0 .341.298l1.65.738c.196.09.322.284.321.5l.011 1.28.001.063a.563.563 0 0 1-.16.346zm-3.556 1.893a.773.773 0 0 1 0-1.545.773.773 0 0 1 0 1.545zm-9.323 0a.773.773 0 0 1 0-1.545.773.773 0 0 1 0 1.545zM19.99 5.793a2.105 2.105 0 0 0-1.24-1.91l-1.445-.646-1.618-2.065A2.556 2.556 0 0 0 13.52 0L8.613.047a2.567 2.567 0 0 0-2.02 1.015L4.33 3.277l-2.805.792A2.111 2.111 0 0 0 0 6.11l.01 1.122c.004.563.224 1.09.618 1.487s.916.615 1.468.615h.988A2.431 2.431 0 0 0 5.4 11.04a2.431 2.431 0 0 0 2.354-1.833l4.616-.001a2.431 2.431 0 0 0 2.353 1.834 2.431 2.431 0 0 0 2.354-1.835h.849a2.065 2.065 0 0 0 1.479-.639A2.12 2.12 0 0 0 20 7.07l-.01-1.277z" mask="url(#b)"/>
    </g>
</svg>
